HIERARCHY
ROOT Hips
{
  OFFSET 0 0 0
  CHANNELS 6 Xposition Yposition Zposition Zrotation Yrotation Xrotation
  JOINT LeftThigh
  {
    OFFSET 8.409438 0 -5.917753
    CHANNELS 3 Zrotation Yrotation Xrotation
    JOINT LeftLeg
    {
      OFFSET 0 0 -42.358652
      CHANNELS 3 Zrotation Yrotation Xrotation
      JOINT LeftFoot
      {
        OFFSET 0 0 -39.357303
        CHANNELS 3 Zrotation Yrotation Xrotation
      }
    }
  }
  JOINT RightThigh
  {
    OFFSET -8.409438 0 -5.917753
    CHANNELS 3 Zrotation Yrotation Xrotation
    JOINT RightLeg
    {
      OFFSET 0 0 -42.358652
      CHANNELS 3 Zrotation Yrotation Xrotation
      JOINT RightFoot
      {
        OFFSET 0 0 -39.357303
        CHANNELS 3 Zrotation Yrotation Xrotation
      }
    }
  }
  JOINT SpineLow
  {
    OFFSET 0 0 4.719101
    CHANNELS 3 Zrotation Yrotation Xrotation
    JOINT SpineMid
    {
      OFFSET 0 0 12.899191
      CHANNELS 3 Zrotation Yrotation Xrotation
      JOINT Chest
      {
        OFFSET 0 0 12.899191
        CHANNELS 3 Zrotation Yrotation Xrotation
        JOINT LeftShoulder
        {
          OFFSET 7.550562 1.41573 9.438202
          CHANNELS 3 Zrotation Yrotation Xrotation
          JOINT LeftArm
          {
            OFFSET 9.155056 0 4.247191
            CHANNELS 3 Zrotation Yrotation Xrotation
            JOINT LeftForearm
            {
              OFFSET 0 0 25.771955
              CHANNELS 3 Zrotation Yrotation Xrotation
              JOINT LeftHand
              {
                OFFSET 0 0 25.197169
                CHANNELS 3 Zrotation Yrotation Xrotation
              }
            }
          }
        }
        JOINT RightShoulder
        {
          OFFSET -7.550562 1.41573 9.438202
          CHANNELS 3 Zrotation Yrotation Xrotation
          JOINT RightArm
          {
            OFFSET -9.155056 0 4.247191
            CHANNELS 3 Zrotation Yrotation Xrotation
            JOINT RightForearm
            {
              OFFSET 0 0 -25.771955
              CHANNELS 3 Zrotation Yrotation Xrotation
              JOINT RightHand
              {
                OFFSET 0 0 -25.197169
                CHANNELS 3 Zrotation Yrotation Xrotation
              }
            }
          }
        }
        JOINT Neck
        {
          OFFSET 0 0 15.101124
          CHANNELS 3 Zrotation Yrotation Xrotation
          JOINT Head
          {
            OFFSET 0 0 11.325843
            CHANNELS 3 Zrotation Yrotation Xrotation
            End Site
            {
              OFFSET 0 0 14.157303
            }
          }
        }
      }
    }
  }
}
MOTION
Frames: 7
Frame Time: 0.0
0.0  101.685394  0.0  2.107218  28.508826  -99.984144  -4.992271  -15.96234  -0.363818  -7.207672  14.634309  24.774374  2.302875  3.0894  3.699519  -21.740659  17.336878  4.388326  -8.038522  4.652985  15.307406  -5.452891  1.479868  -1.725487  -1.523378  1.562502  2.455735  -4.0058  4.418721  6.619983  -4.0058  4.418722  6.619983  -19.192571  18.880133  4.210121  88.084688  55.60928  175.126833  -33.741118  -9.816624  89.058117  65.181902  -11.887534  -28.195156  22.089544  -18.353457  14.598143  83.17538  40.57812  52.583556  19.076296  19.556651  -27.291321  100.710997  7.460172  6.34842  -5.960059  -5.423066  1.237401  -4.455714  -4.079833  0.874425  
0.0  101.685394  0.0  2.161325  29.044658  -99.924363  -4.988791  -16.087852  -0.354011  -7.474446  14.763316  24.599891  2.153943  3.067081  3.663834  -22.169241  17.416312  4.262163  -8.1235  4.682923  15.449013  -5.473875  1.548867  -1.725618  -1.525105  1.563668  2.494251  -4.007766  4.424343  6.725188  -4.007766  4.424343  6.725187  -19.743806  18.447909  3.786548  87.23374  55.103521  174.681158  -34.1242  -9.46217  88.97148  65.169051  -12.014051  -29.522604  22.142165  -18.309538  14.639266  82.867666  41.231639  52.378592  18.695182  19.128463  -27.475864  100.720365  7.641752  6.030402  -6.226395  -5.480035  1.06828  -4.656642  -4.121419  0.744704  
0.0  101.685394  0.0  2.203978  29.509209  -99.918393  -5.129351  -16.117018  -0.402861  -7.530554  14.81538  24.586672  1.993399  3.073039  3.629289  -22.405834  17.444354  4.237537  -8.199022  4.760103  15.60294  -5.541498  1.59691  -1.730641  -1.565636  1.54338  2.525916  -4.118389  4.374968  6.810134  -4.118389  4.374968  6.810135  -19.975654  18.234182  3.3656  86.649744  54.54671  174.288404  -34.443946  -8.99131  88.833244  65.584625  -12.073922  -31.372973  22.084481  -18.045358  14.773598  82.686416  41.827718  52.131797  18.496073  18.906576  -27.672432  100.748585  7.840784  5.795286  -6.2291  -5.43066  0.945456  -4.659911  -4.083135  0.653139  
0.0  101.685394  0.0  2.291934  30.115989  -99.838929  -5.326978  -16.151547  -0.528912  -7.768608  14.926577  24.46548  1.86365  3.125692  3.631305  -22.768462  17.523228  4.135145  -8.439167  4.845677  15.750895  -5.50285  1.660751  -1.736052  -1.606494  1.527141  2.568342  -4.228819  4.33745  6.924334  -4.228819  4.33745  6.924334  -20.468625  17.786296  2.835936  86.560246  53.985043  174.338592  -34.912442  -8.576265  88.573629  65.499502  -12.412347  -32.752802  22.047192  -17.862776  14.794523  82.53878  42.403588  51.94297  18.652339  18.922364  -27.682538  100.580849  7.842949  5.690219  -6.397049  -5.385106  0.752976  -4.787605  -4.047235  0.507863  
0.0  101.685394  0.0  2.308875  30.50519  -99.851586  -5.372596  -16.234691  -0.589405  -7.854458  15.036125  24.50863  1.685168  3.145401  3.566651  -22.86819  17.504184  4.117429  -8.547375  4.920507  15.95744  -5.537734  1.727909  -1.75119  -1.674698  1.500557  2.582321  -4.416978  4.272878  6.959524  -4.416978  4.272878  6.959525  -20.558868  17.594976  2.471132  86.550444  53.474346  174.284456  -35.520038  -7.930051  88.237608  64.936159  -13.009817  -33.121662  22.129942  -17.647196  14.993102  82.765674  42.771636  52.009815  18.673295  19.024064  -27.555452  100.72781  7.901614  5.783134  -6.286103  -5.275514  0.708541  -4.705116  -3.964419  0.476687  
0.0  101.685394  0.0  2.409698  31.151735  -99.721804  -5.903314  -16.163342  -1.003996  -7.838553  15.194092  24.737025  1.602033  3.207654  3.528758  -23.198325  17.559089  3.957707  -8.988471  5.037879  16.117907  -5.404169  1.826192  -1.747307  -1.790382  1.492201  2.571247  -4.734779  4.261335  6.92206  -4.734779  4.261335  6.922061  -20.641445  17.317833  2.224641  86.832414  53.102457  174.604753  -35.931671  -6.936272  87.930137  63.949574  -13.77074  -32.176847  22.375355  -17.584704  15.243608  83.185908  43.059543  52.169984  18.805852  19.105762  -27.166132  100.796753  7.876984  5.96924  -6.258638  -5.159155  0.70864  -4.684812  -3.877103  0.478216  
0.0  101.685394  0.0  2.35582  31.39443  -99.767191  -5.885589  -16.288158  -1.076068  -7.920954  15.304267  24.891979  1.452601  3.24911  3.396554  -23.0822  17.468626  3.940337  -9.026537  5.053974  16.415687  -5.470428  1.916051  -1.769443  -1.868373  1.459257  2.560818  -4.951908  4.178747  6.89054  -4.951907  4.178747  6.89054  -20.57146  17.288623  2.1163  87.173223  52.867768  174.708602  -36.238782  -6.047688  87.567975  63.415366  -14.159521  -31.801502  22.635108  -17.430785  15.570588  83.53519  43.362833  52.320796  18.937089  19.238357  -26.931694  100.962338  7.885305  6.092043  -6.063381  -5.024427  0.791825  -4.538102  -3.776616  0.543585  
